<?xml version="1.0" encoding="utf-8" standalone="no"?>
<!DOCTYPE svg PUBLIC "-//W3C//DTD SVG 1.1//EN"
  "http://www.w3.org/Graphics/SVG/1.1/DTD/svg11.dtd">
<!-- Created with matplotlib (http://matplotlib.sourceforge.net/) -->
<svg height="639pt" version="1.1" viewBox="0 0 1224 639" width="1224pt" xmlns="http://www.w3.org/2000/svg" xmlns:xlink="http://www.w3.org/1999/xlink">
 <defs>
  <style type="text/css">
*{stroke-linecap:square;stroke-linejoin:round;}
  </style>
 </defs>
 <g id="figure_1">
  <g id="patch_1">
   <path d="
M0 639
L1224 639
L1224 0
L0 0
z
" style="fill:#ffffff;"/>
  </g>
  <g id="axes_1">
   <g id="patch_2">
    <path d="
M153 575.1
L1101.6 575.1
L1101.6 63.9
L153 63.9
z
" style="fill:#ffffff;"/>
   </g>
   <g id="PathCollection_1">
    <defs>
     <path d="
M0 2.23607
C0.593012 2.23607 1.16182 2.00046 1.58114 1.58114
C2.00046 1.16182 2.23607 0.593012 2.23607 0
C2.23607 -0.593012 2.00046 -1.16182 1.58114 -1.58114
C1.16182 -2.00046 0.593012 -2.23607 0 -2.23607
C-0.593012 -2.23607 -1.16182 -2.00046 -1.58114 -1.58114
C-2.00046 -1.16182 -2.23607 -0.593012 -2.23607 0
C-2.23607 0.593012 -2.00046 1.16182 -1.58114 1.58114
C-1.16182 2.00046 -0.593012 2.23607 0 2.23607
z
" id="C0_0_919e3f95db"/>
    </defs>
    <g clip-path="url(#pdcf577ac88)">
     <use style="fill:#0000ff;stroke:#000000;stroke-linecap:butt;" x="172.864082944" xlink:href="#C0_0_919e3f95db" y="98.7842508316"/>
    </g>
    <g clip-path="url(#pdcf577ac88)">
     <use style="fill:#0000ff;stroke:#000000;stroke-linecap:butt;" x="187.46432243" xlink:href="#C0_0_919e3f95db" y="314.182333088"/>
    </g>
    <g clip-path="url(#pdcf577ac88)">
     <use style="fill:#0000ff;stroke:#000000;stroke-linecap:butt;" x="202.064561916" xlink:href="#C0_0_919e3f95db" y="332.630940056"/>
    </g>
    <g clip-path="url(#pdcf577ac88)">
     <use style="fill:#0000ff;stroke:#000000;stroke-linecap:butt;" x="216.664801402" xlink:href="#C0_0_919e3f95db" y="286.909797049"/>
    </g>
    <g clip-path="url(#pdcf577ac88)">
     <use style="fill:#0000ff;stroke:#000000;stroke-linecap:butt;" x="231.265040888" xlink:href="#C0_0_919e3f95db" y="302.520468521"/>
    </g>
    <g clip-path="url(#pdcf577ac88)">
     <use style="fill:#0000ff;stroke:#000000;stroke-linecap:butt;" x="245.865280374" xlink:href="#C0_0_919e3f95db" y="289.177722073"/>
    </g>
    <g clip-path="url(#pdcf577ac88)">
     <use style="fill:#0000ff;stroke:#000000;stroke-linecap:butt;" x="260.46551986" xlink:href="#C0_0_919e3f95db" y="298.735358947"/>
    </g>
    <g clip-path="url(#pdcf577ac88)">
     <use style="fill:#0000ff;stroke:#000000;stroke-linecap:butt;" x="275.065759346" xlink:href="#C0_0_919e3f95db" y="275.966229773"/>
    </g>
    <g clip-path="url(#pdcf577ac88)">
     <use style="fill:#0000ff;stroke:#000000;stroke-linecap:butt;" x="289.665998832" xlink:href="#C0_0_919e3f95db" y="257.333195305"/>
    </g>
    <g clip-path="url(#pdcf577ac88)">
     <use style="fill:#0000ff;stroke:#000000;stroke-linecap:butt;" x="304.266238318" xlink:href="#C0_0_919e3f95db" y="275.994597244"/>
    </g>
    <g clip-path="url(#pdcf577ac88)">
     <use style="fill:#0000ff;stroke:#000000;stroke-linecap:butt;" x="318.866477804" xlink:href="#C0_0_919e3f95db" y="267.859977514"/>
    </g>
    <g clip-path="url(#pdcf577ac88)">
     <use style="fill:#0000ff;stroke:#000000;stroke-linecap:butt;" x="333.46671729" xlink:href="#C0_0_919e3f95db" y="275.404314137"/>
    </g>
    <g clip-path="url(#pdcf577ac88)">
     <use style="fill:#0000ff;stroke:#000000;stroke-linecap:butt;" x="348.066956776" xlink:href="#C0_0_919e3f95db" y="273.657537592"/>
    </g>
    <g clip-path="url(#pdcf577ac88)">
     <use style="fill:#0000ff;stroke:#000000;stroke-linecap:butt;" x="362.667196262" xlink:href="#C0_0_919e3f95db" y="271.268446745"/>
    </g>
    <g clip-path="url(#pdcf577ac88)">
     <use style="fill:#0000ff;stroke:#000000;stroke-linecap:butt;" x="377.267435748" xlink:href="#C0_0_919e3f95db" y="263.572346306"/>
    </g>
    <g clip-path="url(#pdcf577ac88)">
     <use style="fill:#0000ff;stroke:#000000;stroke-linecap:butt;" x="391.867675234" xlink:href="#C0_0_919e3f95db" y="277.268932021"/>
    </g>
    <g clip-path="url(#pdcf577ac88)">
     <use style="fill:#0000ff;stroke:#000000;stroke-linecap:butt;" x="406.46791472" xlink:href="#C0_0_919e3f95db" y="273.153526934"/>
    </g>
    <g clip-path="url(#pdcf577ac88)">
     <use style="fill:#0000ff;stroke:#000000;stroke-linecap:butt;" x="421.068154206" xlink:href="#C0_0_919e3f95db" y="259.717566109"/>
    </g>
    <g clip-path="url(#pdcf577ac88)">
     <use style="fill:#0000ff;stroke:#000000;stroke-linecap:butt;" x="435.668393692" xlink:href="#C0_0_919e3f95db" y="266.972551316"/>
    </g>
    <g clip-path="url(#pdcf577ac88)">
     <use style="fill:#0000ff;stroke:#000000;stroke-linecap:butt;" x="450.268633178" xlink:href="#C0_0_919e3f95db" y="262.153708649"/>
    </g>
    <g clip-path="url(#pdcf577ac88)">
     <use style="fill:#0000ff;stroke:#000000;stroke-linecap:butt;" x="464.868872664" xlink:href="#C0_0_919e3f95db" y="260.271644211"/>
    </g>
    <g clip-path="url(#pdcf577ac88)">
     <use style="fill:#0000ff;stroke:#000000;stroke-linecap:butt;" x="479.46911215" xlink:href="#C0_0_919e3f95db" y="269.343501273"/>
    </g>
    <g clip-path="url(#pdcf577ac88)">
     <use style="fill:#0000ff;stroke:#000000;stroke-linecap:butt;" x="494.069351636" xlink:href="#C0_0_919e3f95db" y="261.502468972"/>
    </g>
    <g clip-path="url(#pdcf577ac88)">
     <use style="fill:#0000ff;stroke:#000000;stroke-linecap:butt;" x="508.669591121" xlink:href="#C0_0_919e3f95db" y="281.195879316"/>
    </g>
    <g clip-path="url(#pdcf577ac88)">
     <use style="fill:#0000ff;stroke:#000000;stroke-linecap:butt;" x="523.269830607" xlink:href="#C0_0_919e3f95db" y="262.475348854"/>
    </g>
    <g clip-path="url(#pdcf577ac88)">
     <use style="fill:#0000ff;stroke:#000000;stroke-linecap:butt;" x="537.870070093" xlink:href="#C0_0_919e3f95db" y="268.207364141"/>
    </g>
    <g clip-path="url(#pdcf577ac88)">
     <use style="fill:#0000ff;stroke:#000000;stroke-linecap:butt;" x="552.470309579" xlink:href="#C0_0_919e3f95db" y="264.487955348"/>
    </g>
    <g clip-path="url(#pdcf577ac88)">
     <use style="fill:#0000ff;stroke:#000000;stroke-linecap:butt;" x="567.070549065" xlink:href="#C0_0_919e3f95db" y="272.294433383"/>
    </g>
    <g clip-path="url(#pdcf577ac88)">
     <use style="fill:#0000ff;stroke:#000000;stroke-linecap:butt;" x="581.670788551" xlink:href="#C0_0_919e3f95db" y="281.182397264"/>
    </g>
    <g clip-path="url(#pdcf577ac88)">
     <use style="fill:#0000ff;stroke:#000000;stroke-linecap:butt;" x="596.271028037" xlink:href="#C0_0_919e3f95db" y="283.258396626"/>
    </g>
    <g clip-path="url(#pdcf577ac88)">
     <use style="fill:#0000ff;stroke:#000000;stroke-linecap:butt;" x="610.871267523" xlink:href="#C0_0_919e3f95db" y="270.51013813"/>
    </g>
    <g clip-path="url(#pdcf577ac88)">
     <use style="fill:#0000ff;stroke:#000000;stroke-linecap:butt;" x="625.471507009" xlink:href="#C0_0_919e3f95db" y="270.120561486"/>
    </g>
    <g clip-path="url(#pdcf577ac88)">
     <use style="fill:#0000ff;stroke:#000000;stroke-linecap:butt;" x="640.071746495" xlink:href="#C0_0_919e3f95db" y="273.237489145"/>
    </g>
    <g clip-path="url(#pdcf577ac88)">
     <use style="fill:#0000ff;stroke:#000000;stroke-linecap:butt;" x="654.671985981" xlink:href="#C0_0_919e3f95db" y="273.417199062"/>
    </g>
    <g clip-path="url(#pdcf577ac88)">
     <use style="fill:#0000ff;stroke:#000000;stroke-linecap:butt;" x="669.272225467" xlink:href="#C0_0_919e3f95db" y="266.682318469"/>
    </g>
    <g clip-path="url(#pdcf577ac88)">
     <use style="fill:#0000ff;stroke:#000000;stroke-linecap:butt;" x="683.872464953" xlink:href="#C0_0_919e3f95db" y="274.552257395"/>
    </g>
    <g clip-path="url(#pdcf577ac88)">
     <use style="fill:#0000ff;stroke:#000000;stroke-linecap:butt;" x="698.472704439" xlink:href="#C0_0_919e3f95db" y="276.874640264"/>
    </g>
    <g clip-path="url(#pdcf577ac88)">
     <use style="fill:#0000ff;stroke:#000000;stroke-linecap:butt;" x="713.072943925" xlink:href="#C0_0_919e3f95db" y="277.809826771"/>
    </g>
    <g clip-path="url(#pdcf577ac88)">
     <use style="fill:#0000ff;stroke:#000000;stroke-linecap:butt;" x="727.673183411" xlink:href="#C0_0_919e3f95db" y="277.096666762"/>
    </g>
    <g clip-path="url(#pdcf577ac88)">
     <use style="fill:#0000ff;stroke:#000000;stroke-linecap:butt;" x="742.273422897" xlink:href="#C0_0_919e3f95db" y="282.293333817"/>
    </g>
    <g clip-path="url(#pdcf577ac88)">
     <use style="fill:#0000ff;stroke:#000000;stroke-linecap:butt;" x="756.873662383" xlink:href="#C0_0_919e3f95db" y="279.283817887"/>
    </g>
    <g clip-path="url(#pdcf577ac88)">
     <use style="fill:#0000ff;stroke:#000000;stroke-linecap:butt;" x="771.473901869" xlink:href="#C0_0_919e3f95db" y="271.20493878"/>
    </g>
    <g clip-path="url(#pdcf577ac88)">
     <use style="fill:#0000ff;stroke:#000000;stroke-linecap:butt;" x="786.074141355" xlink:href="#C0_0_919e3f95db" y="270.790021825"/>
    </g>
    <g clip-path="url(#pdcf577ac88)">
     <use style="fill:#0000ff;stroke:#000000;stroke-linecap:butt;" x="800.674380841" xlink:href="#C0_0_919e3f95db" y="285.572127134"/>
    </g>
    <g clip-path="url(#pdcf577ac88)">
     <use style="fill:#0000ff;stroke:#000000;stroke-linecap:butt;" x="815.274620327" xlink:href="#C0_0_919e3f95db" y="281.58533535"/>
    </g>
    <g clip-path="url(#pdcf577ac88)">
     <use style="fill:#0000ff;stroke:#000000;stroke-linecap:butt;" x="829.874859813" xlink:href="#C0_0_919e3f95db" y="277.862324934"/>
    </g>
    <g clip-path="url(#pdcf577ac88)">
     <use style="fill:#0000ff;stroke:#000000;stroke-linecap:butt;" x="844.475099299" xlink:href="#C0_0_919e3f95db" y="285.91943796"/>
    </g>
    <g clip-path="url(#pdcf577ac88)">
     <use style="fill:#0000ff;stroke:#000000;stroke-linecap:butt;" x="859.075338785" xlink:href="#C0_0_919e3f95db" y="279.186224735"/>
    </g>
    <g clip-path="url(#pdcf577ac88)">
     <use style="fill:#0000ff;stroke:#000000;stroke-linecap:butt;" x="873.675578271" xlink:href="#C0_0_919e3f95db" y="287.959425837"/>
    </g>
    <g clip-path="url(#pdcf577ac88)">
     <use style="fill:#0000ff;stroke:#000000;stroke-linecap:butt;" x="888.275817757" xlink:href="#C0_0_919e3f95db" y="282.117217827"/>
    </g>
    <g clip-path="url(#pdcf577ac88)">
     <use style="fill:#0000ff;stroke:#000000;stroke-linecap:butt;" x="902.876057243" xlink:href="#C0_0_919e3f95db" y="286.775983429"/>
    </g>
    <g clip-path="url(#pdcf577ac88)">
     <use style="fill:#0000ff;stroke:#000000;stroke-linecap:butt;" x="917.476296729" xlink:href="#C0_0_919e3f95db" y="285.624600341"/>
    </g>
    <g clip-path="url(#pdcf577ac88)">
     <use style="fill:#0000ff;stroke:#000000;stroke-linecap:butt;" x="932.076536215" xlink:href="#C0_0_919e3f95db" y="284.815328127"/>
    </g>
    <g clip-path="url(#pdcf577ac88)">
     <use style="fill:#0000ff;stroke:#000000;stroke-linecap:butt;" x="946.676775701" xlink:href="#C0_0_919e3f95db" y="284.759508387"/>
    </g>
    <g clip-path="url(#pdcf577ac88)">
     <use style="fill:#0000ff;stroke:#000000;stroke-linecap:butt;" x="961.277015187" xlink:href="#C0_0_919e3f95db" y="277.835577185"/>
    </g>
    <g clip-path="url(#pdcf577ac88)">
     <use style="fill:#0000ff;stroke:#000000;stroke-linecap:butt;" x="975.877254673" xlink:href="#C0_0_919e3f95db" y="284.340162032"/>
    </g>
    <g clip-path="url(#pdcf577ac88)">
     <use style="fill:#0000ff;stroke:#000000;stroke-linecap:butt;" x="990.477494159" xlink:href="#C0_0_919e3f95db" y="284.796113837"/>
    </g>
    <g clip-path="url(#pdcf577ac88)">
     <use style="fill:#0000ff;stroke:#000000;stroke-linecap:butt;" x="1005.07773364" xlink:href="#C0_0_919e3f95db" y="289.347929705"/>
    </g>
    <g clip-path="url(#pdcf577ac88)">
     <use style="fill:#0000ff;stroke:#000000;stroke-linecap:butt;" x="1019.67797313" xlink:href="#C0_0_919e3f95db" y="281.797653706"/>
    </g>
    <g clip-path="url(#pdcf577ac88)">
     <use style="fill:#0000ff;stroke:#000000;stroke-linecap:butt;" x="1034.27821262" xlink:href="#C0_0_919e3f95db" y="281.874189949"/>
    </g>
    <g clip-path="url(#pdcf577ac88)">
     <use style="fill:#0000ff;stroke:#000000;stroke-linecap:butt;" x="1048.8784521" xlink:href="#C0_0_919e3f95db" y="286.568571694"/>
    </g>
    <g clip-path="url(#pdcf577ac88)">
     <use style="fill:#0000ff;stroke:#000000;stroke-linecap:butt;" x="1063.47869159" xlink:href="#C0_0_919e3f95db" y="300.227838965"/>
    </g>
    <g clip-path="url(#pdcf577ac88)">
     <use style="fill:#0000ff;stroke:#000000;stroke-linecap:butt;" x="1078.07893107" xlink:href="#C0_0_919e3f95db" y="285.00385437"/>
    </g>
    <g clip-path="url(#pdcf577ac88)">
     <use style="fill:#0000ff;stroke:#000000;stroke-linecap:butt;" x="1092.67917056" xlink:href="#C0_0_919e3f95db" y="286.419165096"/>
    </g>
   </g>
   <g id="line2d_1">
    <path clip-path="url(#pdcf577ac88)" d="
M172.864 98.7843
L187.464 314.182
L202.065 332.631
L216.665 286.91
L231.265 302.52
L245.865 289.178
L260.466 298.735
L275.066 275.966
L289.666 257.333
L304.266 275.995
L318.866 267.86
L333.467 275.404
L348.067 273.658
L362.667 271.268
L377.267 263.572
L391.868 277.269
L406.468 273.154
L421.068 259.718
L435.668 266.973
L450.269 262.154
L464.869 260.272
L479.469 269.344
L494.069 261.502
L508.67 281.196
L523.27 262.475
L537.87 268.207
L552.47 264.488
L567.071 272.294
L581.671 281.182
L596.271 283.258
L610.871 270.51
L625.472 270.121
L640.072 273.237
L654.672 273.417
L669.272 266.682
L683.872 274.552
L698.473 276.875
L713.073 277.81
L727.673 277.097
L742.273 282.293
L756.874 279.284
L771.474 271.205
L786.074 270.79
L800.674 285.572
L815.275 281.585
L829.875 277.862
L844.475 285.919
L859.075 279.186
L873.676 287.959
L888.276 282.117
L902.876 286.776
L917.476 285.625
L932.077 284.815
L946.677 284.76
L961.277 277.836
L975.877 284.34
L990.477 284.796
L1005.08 289.348
L1019.68 281.798
L1034.28 281.874
L1048.88 286.569
L1063.48 300.228
L1078.08 285.004
L1092.68 286.419" style="fill:none;stroke:#0000ff;"/>
   </g>
   <g id="line2d_2">
    <path clip-path="url(#pdcf577ac88)" d="
M172.864 98.7843
L187.464 98.7843
L202.065 98.7843
L216.665 98.7843
L231.265 98.7843
L245.865 98.7843
L260.466 98.7843
L275.066 98.7843
L289.666 98.7843
L304.266 98.7843
L318.866 98.7843
L333.467 98.7843
L348.067 98.7843
L362.667 98.7843
L377.267 98.7843
L391.868 98.7843
L406.468 98.7843
L421.068 98.7843
L435.668 98.7843
L450.269 98.7843
L464.869 98.7843
L479.469 98.7843
L494.069 98.7843
L508.67 98.7843
L523.27 98.7843
L537.87 98.7843
L552.47 98.7843
L567.071 98.7843
L581.671 98.7843
L596.271 98.7843
L610.871 98.7843
L625.472 98.7843
L640.072 98.7843
L654.672 98.7843
L669.272 98.7843
L683.872 98.7843
L698.473 98.7843
L713.073 98.7843
L727.673 98.7843
L742.273 98.7843
L756.874 98.7843
L771.474 98.7843
L786.074 98.7843
L800.674 98.7843
L815.275 98.7843
L829.875 98.7843
L844.475 98.7843
L859.075 98.7843
L873.676 98.7843
L888.276 98.7843
L902.876 98.7843
L917.476 98.7843
L932.077 98.7843
L946.677 98.7843
L961.277 98.7843
L975.877 98.7843
L990.477 98.7843
L1005.08 98.7843
L1019.68 98.7843
L1034.28 98.7843
L1048.88 98.7843
L1063.48 98.7843
L1078.08 98.7843
L1092.68 98.7843" style="fill:none;stroke:#008000;"/>
   </g>
   <g id="matplotlib.axis_1">
    <g id="xtick_1">
     <g id="line2d_3">
      <defs>
       <path d="
M0 0
L0 -4" id="m0012dd4eef" style="stroke:#000000;stroke-linecap:butt;stroke-width:0.5;"/>
      </defs>
      <g>
       <use style="stroke:#000000;stroke-linecap:butt;stroke-width:0.5;" x="158.263843458" xlink:href="#m0012dd4eef" y="575.1"/>
      </g>
     </g>
     <g id="line2d_4">
      <defs>
       <path d="
M0 0
L0 4" id="m476344969c" style="stroke:#000000;stroke-linecap:butt;stroke-width:0.5;"/>
      </defs>
      <g>
       <use style="stroke:#000000;stroke-linecap:butt;stroke-width:0.5;" x="158.263843458" xlink:href="#m476344969c" y="63.9"/>
      </g>
     </g>
     <g id="text_1">
      <!-- 0 -->
      <defs>
       <path d="
M31.7812 66.4062
Q24.1719 66.4062 20.3281 58.9062
Q16.5 51.4219 16.5 36.375
Q16.5 21.3906 20.3281 13.8906
Q24.1719 6.39062 31.7812 6.39062
Q39.4531 6.39062 43.2812 13.8906
Q47.125 21.3906 47.125 36.375
Q47.125 51.4219 43.2812 58.9062
Q39.4531 66.4062 31.7812 66.4062
M31.7812 74.2188
Q44.0469 74.2188 50.5156 64.5156
Q56.9844 54.8281 56.9844 36.375
Q56.9844 17.9688 50.5156 8.26562
Q44.0469 -1.42188 31.7812 -1.42188
Q19.5312 -1.42188 13.0625 8.26562
Q6.59375 17.9688 6.59375 36.375
Q6.59375 54.8281 13.0625 64.5156
Q19.5312 74.2188 31.7812 74.2188" id="DejaVuSans-30"/>
      </defs>
      <g transform="translate(155.240405958 588.00625)scale(0.12 -0.12)">
       <use xlink:href="#DejaVuSans-30"/>
      </g>
     </g>
    </g>
    <g id="xtick_2">
     <g id="line2d_5">
      <g>
       <use style="stroke:#000000;stroke-linecap:butt;stroke-width:0.5;" x="304.266238318" xlink:href="#m0012dd4eef" y="575.1"/>
      </g>
     </g>
     <g id="line2d_6">
      <g>
       <use style="stroke:#000000;stroke-linecap:butt;stroke-width:0.5;" x="304.266238318" xlink:href="#m476344969c" y="63.9"/>
      </g>
     </g>
     <g id="text_2">
      <!-- 10 -->
      <defs>
       <path d="
M12.4062 8.29688
L28.5156 8.29688
L28.5156 63.9219
L10.9844 60.4062
L10.9844 69.3906
L28.4219 72.9062
L38.2812 72.9062
L38.2812 8.29688
L54.3906 8.29688
L54.3906 0
L12.4062 0
z
" id="DejaVuSans-31"/>
      </defs>
      <g transform="translate(297.688738318 588.00625)scale(0.12 -0.12)">
       <use xlink:href="#DejaVuSans-31"/>
       <use x="63.623046875" xlink:href="#DejaVuSans-30"/>
      </g>
     </g>
    </g>
    <g id="xtick_3">
     <g id="line2d_7">
      <g>
       <use style="stroke:#000000;stroke-linecap:butt;stroke-width:0.5;" x="450.268633178" xlink:href="#m0012dd4eef" y="575.1"/>
      </g>
     </g>
     <g id="line2d_8">
      <g>
       <use style="stroke:#000000;stroke-linecap:butt;stroke-width:0.5;" x="450.268633178" xlink:href="#m476344969c" y="63.9"/>
      </g>
     </g>
     <g id="text_3">
      <!-- 20 -->
      <defs>
       <path d="
M19.1875 8.29688
L53.6094 8.29688
L53.6094 0
L7.32812 0
L7.32812 8.29688
Q12.9375 14.1094 22.625 23.8906
Q32.3281 33.6875 34.8125 36.5312
Q39.5469 41.8438 41.4219 45.5312
Q43.3125 49.2188 43.3125 52.7812
Q43.3125 58.5938 39.2344 62.25
Q35.1562 65.9219 28.6094 65.9219
Q23.9688 65.9219 18.8125 64.3125
Q13.6719 62.7031 7.8125 59.4219
L7.8125 69.3906
Q13.7656 71.7812 18.9375 73
Q24.125 74.2188 28.4219 74.2188
Q39.75 74.2188 46.4844 68.5469
Q53.2188 62.8906 53.2188 53.4219
Q53.2188 48.9219 51.5312 44.8906
Q49.8594 40.875 45.4062 35.4062
Q44.1875 33.9844 37.6406 27.2188
Q31.1094 20.4531 19.1875 8.29688" id="DejaVuSans-32"/>
      </defs>
      <g transform="translate(443.471758178 588.00625)scale(0.12 -0.12)">
       <use xlink:href="#DejaVuSans-32"/>
       <use x="63.623046875" xlink:href="#DejaVuSans-30"/>
      </g>
     </g>
    </g>
    <g id="xtick_4">
     <g id="line2d_9">
      <g>
       <use style="stroke:#000000;stroke-linecap:butt;stroke-width:0.5;" x="596.271028037" xlink:href="#m0012dd4eef" y="575.1"/>
      </g>
     </g>
     <g id="line2d_10">
      <g>
       <use style="stroke:#000000;stroke-linecap:butt;stroke-width:0.5;" x="596.271028037" xlink:href="#m476344969c" y="63.9"/>
      </g>
     </g>
     <g id="text_4">
      <!-- 30 -->
      <defs>
       <path d="
M40.5781 39.3125
Q47.6562 37.7969 51.625 33
Q55.6094 28.2188 55.6094 21.1875
Q55.6094 10.4062 48.1875 4.48438
Q40.7656 -1.42188 27.0938 -1.42188
Q22.5156 -1.42188 17.6562 -0.515625
Q12.7969 0.390625 7.625 2.20312
L7.625 11.7188
Q11.7188 9.32812 16.5938 8.10938
Q21.4844 6.89062 26.8125 6.89062
Q36.0781 6.89062 40.9375 10.5469
Q45.7969 14.2031 45.7969 21.1875
Q45.7969 27.6406 41.2812 31.2656
Q36.7656 34.9062 28.7188 34.9062
L20.2188 34.9062
L20.2188 43.0156
L29.1094 43.0156
Q36.375 43.0156 40.2344 45.9219
Q44.0938 48.8281 44.0938 54.2969
Q44.0938 59.9062 40.1094 62.9062
Q36.1406 65.9219 28.7188 65.9219
Q24.6562 65.9219 20.0156 65.0312
Q15.375 64.1562 9.8125 62.3125
L9.8125 71.0938
Q15.4375 72.6562 20.3438 73.4375
Q25.25 74.2188 29.5938 74.2188
Q40.8281 74.2188 47.3594 69.1094
Q53.9062 64.0156 53.9062 55.3281
Q53.9062 49.2656 50.4375 45.0938
Q46.9688 40.9219 40.5781 39.3125" id="DejaVuSans-33"/>
      </defs>
      <g transform="translate(589.491965537 588.00625)scale(0.12 -0.12)">
       <use xlink:href="#DejaVuSans-33"/>
       <use x="63.623046875" xlink:href="#DejaVuSans-30"/>
      </g>
     </g>
    </g>
    <g id="xtick_5">
     <g id="line2d_11">
      <g>
       <use style="stroke:#000000;stroke-linecap:butt;stroke-width:0.5;" x="742.273422897" xlink:href="#m0012dd4eef" y="575.1"/>
      </g>
     </g>
     <g id="line2d_12">
      <g>
       <use style="stroke:#000000;stroke-linecap:butt;stroke-width:0.5;" x="742.273422897" xlink:href="#m476344969c" y="63.9"/>
      </g>
     </g>
     <g id="text_5">
      <!-- 40 -->
      <defs>
       <path d="
M37.7969 64.3125
L12.8906 25.3906
L37.7969 25.3906
z

M35.2031 72.9062
L47.6094 72.9062
L47.6094 25.3906
L58.0156 25.3906
L58.0156 17.1875
L47.6094 17.1875
L47.6094 0
L37.7969 0
L37.7969 17.1875
L4.89062 17.1875
L4.89062 26.7031
z
" id="DejaVuSans-34"/>
      </defs>
      <g transform="translate(735.330297897 588.00625)scale(0.12 -0.12)">
       <use xlink:href="#DejaVuSans-34"/>
       <use x="63.623046875" xlink:href="#DejaVuSans-30"/>
      </g>
     </g>
    </g>
    <g id="xtick_6">
     <g id="line2d_13">
      <g>
       <use style="stroke:#000000;stroke-linecap:butt;stroke-width:0.5;" x="888.275817757" xlink:href="#m0012dd4eef" y="575.1"/>
      </g>
     </g>
     <g id="line2d_14">
      <g>
       <use style="stroke:#000000;stroke-linecap:butt;stroke-width:0.5;" x="888.275817757" xlink:href="#m476344969c" y="63.9"/>
      </g>
     </g>
     <g id="text_6">
      <!-- 50 -->
      <defs>
       <path d="
M10.7969 72.9062
L49.5156 72.9062
L49.5156 64.5938
L19.8281 64.5938
L19.8281 46.7344
Q21.9688 47.4688 24.1094 47.8281
Q26.2656 48.1875 28.4219 48.1875
Q40.625 48.1875 47.75 41.5
Q54.8906 34.8125 54.8906 23.3906
Q54.8906 11.625 47.5625 5.09375
Q40.2344 -1.42188 26.9062 -1.42188
Q22.3125 -1.42188 17.5469 -0.640625
Q12.7969 0.140625 7.71875 1.70312
L7.71875 11.625
Q12.1094 9.23438 16.7969 8.0625
Q21.4844 6.89062 26.7031 6.89062
Q35.1562 6.89062 40.0781 11.3281
Q45.0156 15.7656 45.0156 23.3906
Q45.0156 31 40.0781 35.4375
Q35.1562 39.8906 26.7031 39.8906
Q22.75 39.8906 18.8125 39.0156
Q14.8906 38.1406 10.7969 36.2812
z
" id="DejaVuSans-35"/>
      </defs>
      <g transform="translate(881.502380257 588.00625)scale(0.12 -0.12)">
       <use xlink:href="#DejaVuSans-35"/>
       <use x="63.623046875" xlink:href="#DejaVuSans-30"/>
      </g>
     </g>
    </g>
    <g id="xtick_7">
     <g id="line2d_15">
      <g>
       <use style="stroke:#000000;stroke-linecap:butt;stroke-width:0.5;" x="1034.27821262" xlink:href="#m0012dd4eef" y="575.1"/>
      </g>
     </g>
     <g id="line2d_16">
      <g>
       <use style="stroke:#000000;stroke-linecap:butt;stroke-width:0.5;" x="1034.27821262" xlink:href="#m476344969c" y="63.9"/>
      </g>
     </g>
     <g id="text_7">
      <!-- 60 -->
      <defs>
       <path d="
M33.0156 40.375
Q26.375 40.375 22.4844 35.8281
Q18.6094 31.2969 18.6094 23.3906
Q18.6094 15.5312 22.4844 10.9531
Q26.375 6.39062 33.0156 6.39062
Q39.6562 6.39062 43.5312 10.9531
Q47.4062 15.5312 47.4062 23.3906
Q47.4062 31.2969 43.5312 35.8281
Q39.6562 40.375 33.0156 40.375
M52.5938 71.2969
L52.5938 62.3125
Q48.875 64.0625 45.0938 64.9844
Q41.3125 65.9219 37.5938 65.9219
Q27.8281 65.9219 22.6719 59.3281
Q17.5312 52.7344 16.7969 39.4062
Q19.6719 43.6562 24.0156 45.9219
Q28.375 48.1875 33.5938 48.1875
Q44.5781 48.1875 50.9531 41.5156
Q57.3281 34.8594 57.3281 23.3906
Q57.3281 12.1562 50.6875 5.35938
Q44.0469 -1.42188 33.0156 -1.42188
Q20.3594 -1.42188 13.6719 8.26562
Q6.98438 17.9688 6.98438 36.375
Q6.98438 53.6562 15.1875 63.9375
Q23.3906 74.2188 37.2031 74.2188
Q40.9219 74.2188 44.7031 73.4844
Q48.4844 72.75 52.5938 71.2969" id="DejaVuSans-36"/>
      </defs>
      <g transform="translate(1027.46071262 588.00625)scale(0.12 -0.12)">
       <use xlink:href="#DejaVuSans-36"/>
       <use x="63.623046875" xlink:href="#DejaVuSans-30"/>
      </g>
     </g>
    </g>
   </g>
   <g id="matplotlib.axis_2">
    <g id="ytick_1">
     <g id="line2d_17">
      <defs>
       <path d="
M0 0
L4 0" id="me8a85f7bf6" style="stroke:#000000;stroke-linecap:butt;stroke-width:0.5;"/>
      </defs>
      <g>
       <use style="stroke:#000000;stroke-linecap:butt;stroke-width:0.5;" x="153.0" xlink:href="#me8a85f7bf6" y="575.1"/>
      </g>
     </g>
     <g id="line2d_18">
      <defs>
       <path d="
M0 0
L-4 0" id="m1a32005dea" style="stroke:#000000;stroke-linecap:butt;stroke-width:0.5;"/>
      </defs>
      <g>
       <use style="stroke:#000000;stroke-linecap:butt;stroke-width:0.5;" x="1101.6" xlink:href="#m1a32005dea" y="575.1"/>
      </g>
     </g>
     <g id="text_8">
      <!-- 0.00 -->
      <defs>
       <path d="
M10.6875 12.4062
L21 12.4062
L21 0
L10.6875 0
z
" id="DejaVuSans-2e"/>
      </defs>
      <g transform="translate(123.869375 579.4678125)scale(0.12 -0.12)">
       <use xlink:href="#DejaVuSans-30"/>
       <use x="63.623046875" xlink:href="#DejaVuSans-2e"/>
       <use x="95.41015625" xlink:href="#DejaVuSans-30"/>
       <use x="159.033203125" xlink:href="#DejaVuSans-30"/>
      </g>
     </g>
    </g>
    <g id="ytick_2">
     <g id="line2d_19">
      <g>
       <use style="stroke:#000000;stroke-linecap:butt;stroke-width:0.5;" x="153.0" xlink:href="#me8a85f7bf6" y="472.86"/>
      </g>
     </g>
     <g id="line2d_20">
      <g>
       <use style="stroke:#000000;stroke-linecap:butt;stroke-width:0.5;" x="1101.6" xlink:href="#m1a32005dea" y="472.86"/>
      </g>
     </g>
     <g id="text_9">
      <!-- 0.02 -->
      <g transform="translate(124.274375 477.2278125)scale(0.12 -0.12)">
       <use xlink:href="#DejaVuSans-30"/>
       <use x="63.623046875" xlink:href="#DejaVuSans-2e"/>
       <use x="95.41015625" xlink:href="#DejaVuSans-30"/>
       <use x="159.033203125" xlink:href="#DejaVuSans-32"/>
      </g>
     </g>
    </g>
    <g id="ytick_3">
     <g id="line2d_21">
      <g>
       <use style="stroke:#000000;stroke-linecap:butt;stroke-width:0.5;" x="153.0" xlink:href="#me8a85f7bf6" y="370.62"/>
      </g>
     </g>
     <g id="line2d_22">
      <g>
       <use style="stroke:#000000;stroke-linecap:butt;stroke-width:0.5;" x="1101.6" xlink:href="#m1a32005dea" y="370.62"/>
      </g>
     </g>
     <g id="text_10">
      <!-- 0.04 -->
      <g transform="translate(123.745625 374.9878125)scale(0.12 -0.12)">
       <use xlink:href="#DejaVuSans-30"/>
       <use x="63.623046875" xlink:href="#DejaVuSans-2e"/>
       <use x="95.41015625" xlink:href="#DejaVuSans-30"/>
       <use x="159.033203125" xlink:href="#DejaVuSans-34"/>
      </g>
     </g>
    </g>
    <g id="ytick_4">
     <g id="line2d_23">
      <g>
       <use style="stroke:#000000;stroke-linecap:butt;stroke-width:0.5;" x="153.0" xlink:href="#me8a85f7bf6" y="268.38"/>
      </g>
     </g>
     <g id="line2d_24">
      <g>
       <use style="stroke:#000000;stroke-linecap:butt;stroke-width:0.5;" x="1101.6" xlink:href="#m1a32005dea" y="268.38"/>
      </g>
     </g>
     <g id="text_11">
      <!-- 0.06 -->
      <g transform="translate(123.828125 272.7478125)scale(0.12 -0.12)">
       <use xlink:href="#DejaVuSans-30"/>
       <use x="63.623046875" xlink:href="#DejaVuSans-2e"/>
       <use x="95.41015625" xlink:href="#DejaVuSans-30"/>
       <use x="159.033203125" xlink:href="#DejaVuSans-36"/>
      </g>
     </g>
    </g>
    <g id="ytick_5">
     <g id="line2d_25">
      <g>
       <use style="stroke:#000000;stroke-linecap:butt;stroke-width:0.5;" x="153.0" xlink:href="#me8a85f7bf6" y="166.14"/>
      </g>
     </g>
     <g id="line2d_26">
      <g>
       <use style="stroke:#000000;stroke-linecap:butt;stroke-width:0.5;" x="1101.6" xlink:href="#m1a32005dea" y="166.14"/>
      </g>
     </g>
     <g id="text_12">
      <!-- 0.08 -->
      <defs>
       <path d="
M31.7812 34.625
Q24.75 34.625 20.7188 30.8594
Q16.7031 27.0938 16.7031 20.5156
Q16.7031 13.9219 20.7188 10.1562
Q24.75 6.39062 31.7812 6.39062
Q38.8125 6.39062 42.8594 10.1719
Q46.9219 13.9688 46.9219 20.5156
Q46.9219 27.0938 42.8906 30.8594
Q38.875 34.625 31.7812 34.625
M21.9219 38.8125
Q15.5781 40.375 12.0312 44.7188
Q8.5 49.0781 8.5 55.3281
Q8.5 64.0625 14.7188 69.1406
Q20.9531 74.2188 31.7812 74.2188
Q42.6719 74.2188 48.875 69.1406
Q55.0781 64.0625 55.0781 55.3281
Q55.0781 49.0781 51.5312 44.7188
Q48 40.375 41.7031 38.8125
Q48.8281 37.1562 52.7969 32.3125
Q56.7812 27.4844 56.7812 20.5156
Q56.7812 9.90625 50.3125 4.23438
Q43.8438 -1.42188 31.7812 -1.42188
Q19.7344 -1.42188 13.25 4.23438
Q6.78125 9.90625 6.78125 20.5156
Q6.78125 27.4844 10.7812 32.3125
Q14.7969 37.1562 21.9219 38.8125
M18.3125 54.3906
Q18.3125 48.7344 21.8438 45.5625
Q25.3906 42.3906 31.7812 42.3906
Q38.1406 42.3906 41.7188 45.5625
Q45.3125 48.7344 45.3125 54.3906
Q45.3125 60.0625 41.7188 63.2344
Q38.1406 66.4062 31.7812 66.4062
Q25.3906 66.4062 21.8438 63.2344
Q18.3125 60.0625 18.3125 54.3906" id="DejaVuSans-38"/>
      </defs>
      <g transform="translate(123.89375 170.5078125)scale(0.12 -0.12)">
       <use xlink:href="#DejaVuSans-30"/>
       <use x="63.623046875" xlink:href="#DejaVuSans-2e"/>
       <use x="95.41015625" xlink:href="#DejaVuSans-30"/>
       <use x="159.033203125" xlink:href="#DejaVuSans-38"/>
      </g>
     </g>
    </g>
    <g id="ytick_6">
     <g id="line2d_27">
      <g>
       <use style="stroke:#000000;stroke-linecap:butt;stroke-width:0.5;" x="153.0" xlink:href="#me8a85f7bf6" y="63.9"/>
      </g>
     </g>
     <g id="line2d_28">
      <g>
       <use style="stroke:#000000;stroke-linecap:butt;stroke-width:0.5;" x="1101.6" xlink:href="#m1a32005dea" y="63.9"/>
      </g>
     </g>
     <g id="text_13">
      <!-- 0.10 -->
      <g transform="translate(123.869375 68.2678125)scale(0.12 -0.12)">
       <use xlink:href="#DejaVuSans-30"/>
       <use x="63.623046875" xlink:href="#DejaVuSans-2e"/>
       <use x="95.41015625" xlink:href="#DejaVuSans-31"/>
       <use x="159.033203125" xlink:href="#DejaVuSans-30"/>
      </g>
     </g>
    </g>
   </g>
   <g id="patch_3">
    <path d="
M153 63.9
L1101.6 63.9" style="fill:none;stroke:#000000;"/>
   </g>
   <g id="patch_4">
    <path d="
M1101.6 575.1
L1101.6 63.9" style="fill:none;stroke:#000000;"/>
   </g>
   <g id="patch_5">
    <path d="
M153 575.1
L1101.6 575.1" style="fill:none;stroke:#000000;"/>
   </g>
   <g id="patch_6">
    <path d="
M153 575.1
L153 63.9" style="fill:none;stroke:#000000;"/>
   </g>
  </g>
 </g>
 <defs>
  <clipPath id="pdcf577ac88">
   <rect height="511.2" width="948.6" x="153.0" y="63.9"/>
  </clipPath>
 </defs>
</svg>
